# Exported from ProBuilder
# http://www.procore3d.com/probuilder
# 5/7/2019 6:08:36 PM

mtllib ./Prototype_Baseball_field.mtl
o Prototype Baseball field

g New Game Object
v 4 0 4
v 50 0 50
v 30 0 90
v -30 0 90
v -50 0 50
v -4 0 4
v 30 1 89
v 49 1 50
v 3 1 4
v -29 1 89
v -3 1 4
v -49 1 50
v -50 0 50
v -4 0 4
v -50 3 50
v -4 3 4
v -30 0 90
v -50 0 50
v -30 3 90
v -50 3 50
v 30 0 90
v -30 0 90
v 30 3 90
v -30 3 90
v 4 0 4
v 50 0 50
v 4 3 4
v 50 3 50
v 50 0 50
v 30 0 90
v 50 3 50
v 30 3 90
v -50 3 50
v -4 3 4
v -49 3 50
v -3 3 4
v -30 3 90
v -50 3 50
v -29 3 89
v -49 3 50
v -4 3 4
v 4 3 4
v -3 3 4
v 3 3 4
v 30 3 90
v -30 3 90
v 30 3 89
v -29 3 89
v 4 3 4
v 50 3 50
v 3 3 4
v 49 3 50
v 50 3 50
v 30 3 90
v 49 3 50
v 30 3 89
v -49 3 50
v -3 3 4
v -49 1 50
v -3 1 4
v -29 3 89
v -49 3 50
v -29 1 89
v -49 1 50
v 30 3 89
v -29 3 89
v 30 1 89
v -29 1 89
v 3 3 4
v 49 3 50
v 3 1 4
v 49 1 50
v 49 3 50
v 30 3 89
v 49 1 50
v 30 1 89

vn 0 -1 0
vn 0 -1 0
vn 0 -1 0
vn 0 -1 0
vn 0 -1 0
vn 0 -0.9999999 0
vn 0 1 0
vn 0 1 0
vn 0 1 0
vn 0 1 0
vn 0 1 0
vn 0 1 0
vn -0.7071068 0 -0.7071068
vn -0.7071068 0 -0.7071068
vn -0.7071068 0 -0.7071068
vn -0.7071068 0 -0.7071068
vn -0.8944272 0 0.4472136
vn -0.8944272 0 0.4472136
vn -0.8944272 0 0.4472136
vn -0.8944272 0 0.4472136
vn 0 0 1
vn 0 0 1
vn 0 0 1
vn 0 0 1
vn 0.7071068 0 -0.7071068
vn 0.7071068 0 -0.7071068
vn 0.7071068 0 -0.7071068
vn 0.7071068 0 -0.7071068
vn 0.8944272 0 0.4472136
vn 0.8944272 0 0.4472136
vn 0.8944272 0 0.4472136
vn 0.8944272 0 0.4472136
vn 0 1 0
vn 0 1 0
vn 0 1 0
vn 0 1 0
vn 0 1 0
vn 0 1 0
vn 0 1 0
vn 0 1 0
vn 0 0 0
vn 0 0 0
vn 0 0 0
vn 0 0 0
vn 0 1 0
vn 0 1 0
vn 0 1 0
vn 0 1 0
vn 0 1 0
vn 0 1 0
vn 0 1 0
vn 0 1 0
vn 0 1 0
vn 0 1 0
vn 0 1 0
vn 0 1 0
vn 0.7071068 0 0.7071068
vn 0.7071068 0 0.7071068
vn 0.7071068 0 0.7071068
vn 0.7071068 0 0.7071068
vn 0.8898175 0 -0.4563166
vn 0.8898175 0 -0.4563166
vn 0.8898175 0 -0.4563166
vn 0.8898175 0 -0.4563166
vn 0 0 -1
vn 0 0 -1
vn 0 0 -1
vn 0 0 -1
vn -0.7071068 0 0.7071068
vn -0.7071068 0 0.7071068
vn -0.7071068 0 0.7071068
vn -0.7071068 0 0.7071068
vn -0.8989899 0 -0.4379694
vn -0.8989899 0 -0.4379694
vn -0.8989899 0 -0.4379694
vn -0.8989899 0 -0.4379694

vt 0 0
vt 46 46
vt 26 86
vt -34 86
vt -54 46
vt -8 0
vt -26 85
vt -45 46
vt 1 0
vt 33 85
vt 7 0
vt 53 46
vt 70.71069 0
vt 5.656855 0
vt 70.71069 3
vt 5.656855 3
vt 61.71548 0
vt 16.99412 0
vt 61.71548 3
vt 16.99412 3
vt 26 0
vt -34 0
vt 26 3
vt -34 3
vt 0 0
vt -65.05383 0
vt 0 3
vt -65.05383 3
vt -20.57183 0
vt -65.29318 0
vt -20.57183 3
vt -65.29318 3
vt 54 46
vt 8 0
vt 53 46
vt 7 0
vt 34 86
vt 54 46
vt 33 85
vt 53 46
vt 0 0
vt 0 0
vt 0 0
vt 0 0
vt -26 86
vt 34 86
vt -26 85
vt 33 85
vt 0 0
vt -46 46
vt 1 0
vt -45 46
vt -46 46
vt -26 86
vt -45 46
vt -26 85
vt -70.00358 3
vt -4.949748 3
vt -70.00358 1
vt -4.949748 1
vt -60.57603 3
vt -16.74682 3
vt -60.57603 1
vt -16.74682 1
vt -26 3
vt 33 3
vt -26 1
vt 33 1
vt -0.7071068 3
vt 64.34672 3
vt -0.7071068 1
vt 64.34672 1
vt 21.64491 3
vt 65.02694 3
vt 21.64491 1
vt 65.02694 1

g New Game Object_0
usemtl Default_Prototype
f 15/15/15 16/16/16 14/14/14 13/13/13
f 19/19/19 20/20/20 18/18/18 17/17/17
f 23/23/23 24/24/24 22/22/22 21/21/21
f 27/27/27 28/28/28 26/26/26 25/25/25
f 31/31/31 32/32/32 30/30/30 29/29/29
f 35/35/35 36/36/36 34/34/34 33/33/33
f 39/39/39 40/40/40 38/38/38 37/37/37
f 43/43/43 44/44/44 42/42/42 41/41/41
f 47/47/47 48/48/48 46/46/46 45/45/45
f 51/51/51 52/52/52 50/50/50 49/49/49
f 55/55/55 56/56/56 54/54/54 53/53/53
f 59/59/59 60/60/60 58/58/58 57/57/57
f 63/63/63 64/64/64 62/62/62 61/61/61
f 67/67/67 68/68/68 66/66/66 65/65/65
f 71/71/71 72/72/72 70/70/70 69/69/69
f 75/75/75 76/76/76 74/74/74 73/73/73

g New Game Object_1
usemtl Default_Prototype
f 1/1/1 2/2/2 3/3/3
f 4/4/4 1/1/1 3/3/3
f 4/4/4 6/6/6 1/1/1
f 5/5/5 6/6/6 4/4/4
f 10/10/10 11/11/11 12/12/12
f 9/9/9 11/11/11 10/10/10
f 7/7/7 9/9/9 10/10/10
f 7/7/7 8/8/8 9/9/9

g New Game Object
v 4 0 4
v -4 0 4
v -4 0 -4
v 4 0 -4
v 4 6 4
v -4 6 -4
v -4 6 4
v 4 6 -4
v -4 0 -4
v 4 0 -4
v -4 6 -4
v 4 6 -4
v 3 1 -3
v -3 1 -3
v 3 5 -3
v -3 5 -3
v 4 0 4
v -4 0 4
v 3 1 4
v -3 1 4
v 4 6 4
v 4 0 4
v 3 5 4
v 3 1 4
v -4 0 4
v -4 6 4
v -3 1 4
v -3 5 4
v -4 6 4
v 4 6 4
v -3 5 4
v 3 5 4
v 3 1 4
v -3 1 4
v 3 1 -3
v -3 1 -3
v -3 5 4
v 3 5 4
v -3 5 -3
v 3 5 -3
v 4 0 -4
v 4 0 4
v 4 3 -3
v 4 3 3
v 4 6 -4
v 4 0 -4
v 4 5 -3
v 4 3 -3
v 4 0 4
v 4 6 4
v 4 3 3
v 4 5 3
v 4 6 4
v 4 6 -4
v 4 5 3
v 4 5 -3
v 4 3 -3
v 4 3 3
v 3 3 -3
v 3 3 3
v 4 5 -3
v 4 3 -3
v 3 5 -3
v 3 3 -3
v 4 3 3
v 4 5 3
v 3 3 3
v 3 5 3
v 4 5 3
v 4 5 -3
v 3 5 3
v 3 5 -3
v 3 5 4
v 3 1 4
v 3 5 3
v 3 3 3
v 3 5 -3
v 3 5 4
v 3 5 -3
v 3 5 3
v 3 1 4
v 3 1 -3
v 3 3 3
v 3 3 -3
v 3 1 -3
v 3 5 -3
v 3 3 -3
v 3 5 -3
v -4 0 4
v -4 0 -4
v -4 3 3
v -4 3 -3
v -4 6 4
v -4 0 4
v -4 5 3
v -4 3 3
v -4 0 -4
v -4 6 -4
v -4 3 -3
v -4 5 -3
v -4 6 -4
v -4 6 4
v -4 5 -3
v -4 5 3
v -4 3 3
v -4 3 -3
v -3 3 3
v -3 3 -3
v -4 5 3
v -4 3 3
v -3 5 3
v -3 3 3
v -4 3 -3
v -4 5 -3
v -3 3 -3
v -3 5 -3
v -4 5 -3
v -4 5 3
v -3 5 -3
v -3 5 3
v -3 1 4
v -3 5 4
v -3 3 3
v -3 5 3
v -3 1 -3
v -3 1 4
v -3 3 -3
v -3 3 3
v -3 5 4
v -3 5 -3
v -3 5 3
v -3 5 -3
v -3 5 -3
v -3 1 -3
v -3 5 -3
v -3 3 -3

vn 0 -1 0
vn 0 -1 0
vn 0 -1 0
vn 0 -1 0
vn 0 1 0
vn 0 1 0
vn 0 1 0
vn 0 1 0
vn 0 0 -1
vn 0 0 -1
vn 0 0 -1
vn 0 0 -1
vn 0 0 1
vn 0 0 1
vn 0 0 1
vn 0 0 1
vn 0 0 1
vn 0 0 1
vn 0 0 1
vn 0 0 1
vn 0 0 1
vn 0 0 1
vn 0 0 1
vn 0 0 1
vn 0 0 1
vn 0 0 1
vn 0 0 1
vn 0 0 1
vn 0 0 1
vn 0 0 1
vn 0 0 1
vn 0 0 1
vn 0 1 0
vn 0 1 0
vn 0 1 0
vn 0 1 0
vn 0 -1 0
vn 0 -1 0
vn 0 -1 0
vn 0 -1 0
vn 1 0 0
vn 1 0 0
vn 1 0 0
vn 1 0 0
vn 1 0 0
vn 1 0 0
vn 1 0 0
vn 1 0 0
vn 1 0 0
vn 1 0 0
vn 1 0 0
vn 1 0 0
vn 1 0 0
vn 1 0 0
vn 1 0 0
vn 1 0 0
vn 0 1 0
vn 0 1 0
vn 0 1 0
vn 0 1 0
vn 0 0 1
vn 0 0 1
vn 0 0 1
vn 0 0 1
vn 0 0 -1
vn 0 0 -1
vn 0 0 -1
vn 0 0 -1
vn 0 -1 0
vn 0 -1 0
vn 0 -1 0
vn 0 -1 0
vn -1 0 0
vn -1 0 0
vn -1 0 0
vn -1 0 0
vn 0 0 0
vn 0 0 0
vn 0 0 0
vn 0 0 0
vn -1 0 0
vn -1 0 0
vn -1 0 0
vn -1 0 0
vn 0 0 0
vn 0 0 0
vn 0 0 0
vn 0 0 0
vn -1 0 0
vn -1 0 0
vn -1 0 0
vn -1 0 0
vn -1 0 0
vn -1 0 0
vn -1 0 0
vn -1 0 0
vn -1 0 0
vn -1 0 0
vn -1 0 0
vn -1 0 0
vn -1 0 0
vn -1 0 0
vn -1 0 0
vn -1 0 0
vn 0 1 0
vn 0 1 0
vn 0 1 0
vn 0 1 0
vn 0 0 -1
vn 0 0 -1
vn 0 0 -1
vn 0 0 -1
vn 0 0 1
vn 0 0 1
vn 0 0 1
vn 0 0 1
vn 0 -1 0
vn 0 -1 0
vn 0 -1 0
vn 0 -1 0
vn 1 0 0
vn 1 0 0
vn 1 0 0
vn 1 0 0
vn 1 0 0
vn 1 0 0
vn 1 0 0
vn 1 0 0
vn 0 0 0
vn 0 0 0
vn 0 0 0
vn 0 0 0
vn 0 0 0
vn 0 0 0
vn 0 0 0
vn 0 0 0

vt 0 0
vt -8 0
vt -8 -8
vt 0 -8
vt 0 0
vt 8 -8
vt 8 0
vt 0 -8
vt 8 0
vt 0 0
vt 8 6
vt 0 6
vt -1 1
vt -7 1
vt -1 5
vt -7 5
vt 0 0
vt -8 0
vt -1 1
vt -7 1
vt 0 6
vt 0 0
vt -1 5
vt -1 1
vt -8 0
vt -8 6
vt -7 1
vt -7 5
vt -8 6
vt 0 6
vt -7 5
vt -1 5
vt 1 0
vt 7 0
vt 1 -7
vt 7 -7
vt -7 0
vt -1 0
vt -7 -7
vt -1 -7
vt 8 0
vt 0 0
vt 7 3
vt 1 3
vt 8 6
vt 8 0
vt 7 5
vt 7 3
vt 0 0
vt 0 6
vt 1 3
vt 1 5
vt 0 6
vt 8 6
vt 1 5
vt 7 5
vt 0 -7
vt 0 -1
vt 1 -7
vt 1 -1
vt 0 5
vt 0 3
vt -1 5
vt -1 3
vt 0 3
vt 0 5
vt 1 3
vt 1 5
vt 0 -1
vt 0 -7
vt -1 -1
vt -1 -7
vt 0 5
vt 0 1
vt -1 5
vt -1 3
vt 0 0
vt 0 0
vt 0 0
vt 0 0
vt 0 1
vt -7 1
vt -1 3
vt -7 3
vt 0 0
vt 0 0
vt 0 0
vt 0 0
vt 0 0
vt -8 0
vt -1 3
vt -7 3
vt 0 6
vt 0 0
vt -1 5
vt -1 3
vt -8 0
vt -8 6
vt -7 3
vt -7 5
vt -8 6
vt 0 6
vt -7 5
vt -1 5
vt 8 -1
vt 8 -7
vt 7 -1
vt 7 -7
vt 8 5
vt 8 3
vt 7 5
vt 7 3
vt -8 3
vt -8 5
vt -7 3
vt -7 5
vt -8 -7
vt -8 -1
vt -7 -7
vt -7 -1
vt 0 1
vt 0 5
vt 1 3
vt 1 5
vt 7 1
vt 0 1
vt 7 3
vt 1 3
vt 0 0
vt 0 0
vt 0 0
vt 0 0
vt 0 0
vt 0 0
vt 0 0
vt 0 0

g New Game Object
usemtl Default_Prototype
f 80/80/80 77/77/77 78/78/78 79/79/79
f 83/83/83 81/81/81 84/84/84 82/82/82
f 87/87/87 88/88/88 86/86/86 85/85/85
f 91/91/91 92/92/92 90/90/90 89/89/89
f 95/95/95 96/96/96 94/94/94 93/93/93
f 99/99/99 100/100/100 98/98/98 97/97/97
f 103/103/103 104/104/104 102/102/102 101/101/101
f 107/107/107 108/108/108 106/106/106 105/105/105
f 111/111/111 112/112/112 110/110/110 109/109/109
f 115/115/115 116/116/116 114/114/114 113/113/113
f 119/119/119 120/120/120 118/118/118 117/117/117
f 123/123/123 124/124/124 122/122/122 121/121/121
f 127/127/127 128/128/128 126/126/126 125/125/125
f 131/131/131 132/132/132 130/130/130 129/129/129
f 135/135/135 136/136/136 134/134/134 133/133/133
f 139/139/139 140/140/140 138/138/138 137/137/137
f 143/143/143 144/144/144 142/142/142 141/141/141
f 147/147/147 148/148/148 146/146/146 145/145/145
f 151/151/151 152/152/152 150/150/150 149/149/149
f 155/155/155 156/156/156 154/154/154 153/153/153
f 159/159/159 160/160/160 158/158/158 157/157/157
f 163/163/163 164/164/164 162/162/162 161/161/161
f 167/167/167 168/168/168 166/166/166 165/165/165
f 171/171/171 172/172/172 170/170/170 169/169/169
f 175/175/175 176/176/176 174/174/174 173/173/173
f 179/179/179 180/180/180 178/178/178 177/177/177
f 183/183/183 184/184/184 182/182/182 181/181/181
f 187/187/187 188/188/188 186/186/186 185/185/185
f 191/191/191 192/192/192 190/190/190 189/189/189
f 195/195/195 196/196/196 194/194/194 193/193/193
f 199/199/199 200/200/200 198/198/198 197/197/197
f 203/203/203 204/204/204 202/202/202 201/201/201
f 207/207/207 208/208/208 206/206/206 205/205/205
f 211/211/211 212/212/212 210/210/210 209/209/209

