# Exported from ProBuilder
# http://www.procore3d.com/probuilder
# 5/6/2019 5:05:40 PM

mtllib ./Outside.mtl
o Outside

g New Game Object
v 2 0 12
v 2 0 8
v 1 0 8
v 1 0 2
v 3 0 0
v 8 0 0
v 8 0 -10
v -8 0 -10
v -8 0 0
v -3 0 0
v -1 0 2
v -1 0 8
v -2 0 8
v -2 0 12
v 3 1 0
v 8 1 0
v 8 1 -10
v -8 1 -10
v -3 1 0
v -8 1 0
v 1 1 2
v -1 1 2
v 1 1 8
v -1 1 8
v -2 1 12
v -2 1 8
v 2 1 12
v 2 1 8
v 1 0 8
v 2 0 8
v 1 1 8
v 2 1 8
v 2 0 8
v 2 0 12
v 2 1 8
v 2 1 12
v 2 0 12
v -2 0 12
v 2 1 12
v -2 1 12
v -2 0 12
v -2 0 8
v -2 1 12
v -2 1 8
v -2 0 8
v -1 0 8
v -2 1 8
v -1 1 8
v -1 0 8
v -1 0 2
v -1 1 8
v -1 1 2
v 1 0 2
v 1 0 8
v 1 1 2
v 1 1 8
v -1 0 2
v -3 0 0
v -1 1 2
v -3 1 0
v 3 0 0
v 1 0 2
v 3 1 0
v 1 1 2
v -8 0 0
v -8 0 -10
v -8 1 0
v -8 1 -10
v -3 0 0
v -8 0 0
v -3 1 0
v -8 1 0
v -8 0 -10
v 8 0 -10
v -8 1 -10
v 8 1 -10
v 8 0 -10
v 8 0 0
v 8 1 -10
v 8 1 0
v 8 0 0
v 3 0 0
v 8 1 0
v 3 1 0

vn 0 -1 0
vn 0 -1 0
vn 0 -1 0
vn 0 -1 0
vn 0 -0.9999999 0
vn 0 -1 0
vn 0 -1 0
vn 0 -1 0
vn 0 -1 0
vn 0 -1 0
vn 0 -1 0
vn 0 -1 0
vn 0 -1 0
vn 0 -1 0
vn 0 0.9999999 0
vn 0 1 0
vn 0 1 0
vn 0 1 0
vn 0 1 0
vn 0 1 0
vn 0 1 0
vn 0 1 0
vn 0 1 0
vn 0 1 0
vn 0 1 0
vn 0 1 0
vn 0 1 0
vn 0 1 0
vn 0 0 -1
vn 0 0 -1
vn 0 0 -1
vn 0 0 -1
vn 1 0 0
vn 1 0 0
vn 1 0 0
vn 1 0 0
vn 0 0 1
vn 0 0 1
vn 0 0 1
vn 0 0 1
vn -1 0 0
vn -1 0 0
vn -1 0 0
vn -1 0 0
vn 0 0 -1
vn 0 0 -1
vn 0 0 -1
vn 0 0 -1
vn -1 0 0
vn -1 0 0
vn -1 0 0
vn -1 0 0
vn 1 0 0
vn 1 0 0
vn 1 0 0
vn 1 0 0
vn -0.7071068 0 0.7071068
vn -0.7071068 0 0.7071068
vn -0.7071068 0 0.7071068
vn -0.7071068 0 0.7071068
vn 0.7071068 0 0.7071068
vn 0.7071068 0 0.7071068
vn 0.7071068 0 0.7071068
vn 0.7071068 0 0.7071068
vn -1 0 0
vn -1 0 0
vn -1 0 0
vn -1 0 0
vn 0 0 1
vn 0 0 1
vn 0 0 1
vn 0 0 1
vn 0 0 -1
vn 0 0 -1
vn 0 0 -1
vn 0 0 -1
vn 1 0 0
vn 1 0 0
vn 1 0 0
vn 1 0 0
vn 0 0 1
vn 0 0 1
vn 0 0 1
vn 0 0 1

vt 0 0
vt 0 -4
vt -1 -4
vt -1 -10
vt 1 -12
vt 6 -12
vt 6 -22
vt -10 -22
vt -10 -12
vt -5 -12
vt -3 -10
vt -3 -4
vt -4 -4
vt -4 0
vt -1 -12
vt -6 -12
vt -6 -22
vt 10 -22
vt 5 -12
vt 10 -12
vt 1 -10
vt 3 -10
vt 1 -4
vt 3 -4
vt 4 0
vt 4 -4
vt 0 0
vt 0 -4
vt 1 0
vt 0 0
vt 1 1
vt 0 1
vt 4 0
vt 0 0
vt 4 1
vt 0 1
vt 0 0
vt -4 0
vt 0 1
vt -4 1
vt 0 0
vt -4 0
vt 0 1
vt -4 1
vt 4 0
vt 3 0
vt 4 1
vt 3 1
vt -4 0
vt -10 0
vt -4 1
vt -10 1
vt 10 0
vt 4 0
vt 10 1
vt 4 1
vt -9.192389 0
vt -12.02082 0
vt -9.192389 1
vt -12.02082 1
vt 9.192389 0
vt 6.363961 0
vt 9.192389 1
vt 6.363961 1
vt -12 0
vt -22 0
vt -12 1
vt -22 1
vt -5 0
vt -10 0
vt -5 1
vt -10 1
vt 10 0
vt -6 0
vt 10 1
vt -6 1
vt 22 0
vt 12 0
vt 22 1
vt 12 1
vt 6 0
vt 1 0
vt 6 1
vt 1 1

g New Game Object_0
usemtl Default_Prototype
f 31/31/31 32/32/32 30/30/30 29/29/29
f 35/35/35 36/36/36 34/34/34 33/33/33
f 39/39/39 40/40/40 38/38/38 37/37/37
f 43/43/43 44/44/44 42/42/42 41/41/41
f 47/47/47 48/48/48 46/46/46 45/45/45
f 51/51/51 52/52/52 50/50/50 49/49/49
f 55/55/55 56/56/56 54/54/54 53/53/53
f 59/59/59 60/60/60 58/58/58 57/57/57
f 63/63/63 64/64/64 62/62/62 61/61/61
f 67/67/67 68/68/68 66/66/66 65/65/65
f 71/71/71 72/72/72 70/70/70 69/69/69
f 75/75/75 76/76/76 74/74/74 73/73/73
f 79/79/79 80/80/80 78/78/78 77/77/77
f 83/83/83 84/84/84 82/82/82 81/81/81

g New Game Object_1
usemtl Default_Prototype
f 7/7/7 6/6/6 5/5/5
f 7/7/7 5/5/5 8/8/8
f 8/8/8 5/5/5 10/10/10
f 9/9/9 8/8/8 10/10/10
f 10/10/10 5/5/5 4/4/4
f 10/10/10 4/4/4 11/11/11
f 11/11/11 4/4/4 3/3/3
f 12/12/12 11/11/11 3/3/3
f 14/14/14 12/12/12 3/3/3
f 14/14/14 13/13/13 12/12/12
f 14/14/14 3/3/3 1/1/1
f 3/3/3 2/2/2 1/1/1
f 27/27/27 28/28/28 23/23/23
f 27/27/27 23/23/23 25/25/25
f 24/24/24 26/26/26 25/25/25
f 23/23/23 24/24/24 25/25/25
f 23/23/23 22/22/22 24/24/24
f 23/23/23 21/21/21 22/22/22
f 22/22/22 21/21/21 19/19/19
f 21/21/21 15/15/15 19/19/19
f 19/19/19 18/18/18 20/20/20
f 19/19/19 15/15/15 18/18/18
f 18/18/18 15/15/15 17/17/17
f 15/15/15 16/16/16 17/17/17

g New Game Object
v 8 1 0
v 8 1 -10
v -8 1 -10
v -8 1 0
v -7 0.9999998 0
v -7 1 -9
v 7 1 -9
v 7 1 0
v 7 4 1.871881E-08
v 8 4 1.871881E-08
v 7 4 -9
v 8 4 -10
v -8 4 -10
v -7 4 -9
v -8 4 1.871881E-08
v -7 4 1.871881E-08
v -7 1 -9
v -7 0.9999998 0
v -7 4 -9
v -7 4 1.871881E-08
v -7 0.9999998 0
v -8 1 0
v -7 4 1.871881E-08
v -8 4 1.871881E-08
v -8 1 0
v -8 1 -10
v -8 4 1.871881E-08
v -8 4 -10
v 7 1 -9
v -7 1 -9
v 7 4 -9
v -7 4 -9
v -8 1 -10
v 8 1 -10
v -8 4 -10
v 8 4 -10
v 8 1 -10
v 8 1 0
v 8 4 -10
v 8 4 1.871881E-08
v 8 1 0
v 7 1 0
v 8 4 1.871881E-08
v 7 4 1.871881E-08
v 7 1 0
v 7 1 -9
v 7 4 1.871881E-08
v 7 4 -9

vn 0 -1 0
vn 0 -1 0
vn 0 -1 0
vn -1.129351E-07 -1 -1.254835E-08
vn -2.384186E-07 -1 -2.649095E-08
vn -6.502325E-08 -1 -7.224806E-09
vn 0 -1 0
vn 0 -1 0
vn 0 1 0
vn 0 1 0
vn 0 1 0
vn 0 1 0
vn 0 1 0
vn 6.502325E-08 1 7.224806E-09
vn 1.129351E-07 1 1.254835E-08
vn 2.384186E-07 1 2.649095E-08
vn 1 0 0
vn 1 0 0
vn 1 0 0
vn 1 0 0
vn -1.335938E-15 -6.239605E-09 1
vn -1.487638E-15 -6.239605E-09 1
vn -1.184238E-15 -6.239605E-09 1
vn -1.335938E-15 -6.239605E-09 1
vn -1 0 0
vn -1 0 0
vn -1 0 0
vn -1 0 0
vn 0 0 1
vn 0 0 1
vn 0 0 1
vn 0 0 1
vn 0 0 -1
vn 0 0 -1
vn 0 0 -1
vn 0 0 -1
vn 1 3.692323E-09 0
vn 1 3.692323E-09 0
vn 1 3.692323E-09 0
vn 1 3.692323E-09 0
vn 0 -6.239605E-09 1
vn 0 -6.239605E-09 1
vn 0 -6.239605E-09 1
vn 0 -6.239605E-09 1
vn -1 0 0
vn -1 0 0
vn -1 0 0
vn -1 0 0

vt 0 0
vt 0 -10
vt -16 -10
vt -16 -3.686182E-16
vt -15 1.142058E-15
vt -15 -9
vt -1 -9
vt -1 -2.303864E-17
vt 1 4.210506E-16
vt 2.220446E-16 4.440892E-16
vt 1 -9
vt 2.220446E-16 -10
vt 16 -10
vt 15 -9
vt 16 7.547101E-17
vt 15 1.586147E-15
vt 9 0
vt 0 -2.384186E-07
vt 9 3
vt -1.871881E-08 3
vt -15 -2.384186E-07
vt -16 1.485163E-22
vt -15 3
vt -16 3
vt 0 0
vt -10 0
vt 1.871881E-08 3
vt -10 3
vt -1 0
vt -15 0
vt -1 3
vt -15 3
vt 16 0
vt 0 0
vt 16 3
vt 1.107697E-08 3
vt 10 0
vt 0 0
vt 10 3
vt -1.871881E-08 3
vt 0 0
vt -1 0
vt -1.107697E-08 3
vt -1 3
vt 0 0
vt -9 0
vt 1.871881E-08 3
vt -9 3

g New Game Object_0
usemtl Default_Prototype
f 103/103/103 104/104/104 102/102/102 101/101/101
f 107/107/107 108/108/108 106/106/106 105/105/105
f 111/111/111 112/112/112 110/110/110 109/109/109
f 115/115/115 116/116/116 114/114/114 113/113/113
f 119/119/119 120/120/120 118/118/118 117/117/117
f 123/123/123 124/124/124 122/122/122 121/121/121
f 127/127/127 128/128/128 126/126/126 125/125/125
f 131/131/131 132/132/132 130/130/130 129/129/129

g New Game Object_1
usemtl Default_Prototype
f 91/91/91 85/85/85 92/92/92
f 91/91/91 86/86/86 85/85/85
f 87/87/87 86/86/86 91/91/91
f 87/87/87 91/91/91 90/90/90
f 88/88/88 87/87/87 90/90/90
f 90/90/90 89/89/89 88/88/88
f 99/99/99 100/100/100 98/98/98
f 98/98/98 97/97/97 99/99/99
f 98/98/98 95/95/95 97/97/97
f 95/95/95 96/96/96 97/97/97
f 94/94/94 96/96/96 95/95/95
f 93/93/93 94/94/94 95/95/95

